<svg xmlns="http://www.w3.org/2000/svg" viewBox="0 0 128.825 97.685">
  <defs>
    <style>
      .cls-1 {
        fill: #fff;
      }
    </style>
  </defs>
  <g id="icon" transform="translate(-123 -152.406)">
    <path id="Path_3" data-name="Path 3" class="cls-1" d="M21.2,18.4a4.7,4.7,0,1,0,4.7,4.7A4.441,4.441,0,0,0,21.2,18.4Z" transform="translate(145.246 177.361)"/>
    <path id="Path_4" data-name="Path 4" class="cls-1" d="M38.7,18.4a4.7,4.7,0,1,0,4.7,4.7A4.718,4.718,0,0,0,38.7,18.4Z" transform="translate(168.905 177.361)"/>
    <path id="Path_5" data-name="Path 5" class="cls-1" d="M128.381,15.333c-3.058-10.584-12.7-17.4-22.108-14.817-6.35,1.646-10.584,7.291-12.23,13.641a48.341,48.341,0,0,0-29.4-10.113c-11.054,0-21.168,4.233-29.4,10.113C33.6,7.336,29.364,1.927,23.014.516,13.606-2.071,3.963,4.749.905,15.333S3.022,36.5,12.43,39.088h1.646A53.055,53.055,0,0,0,9.843,58.609c0,25.871,24.225,39.042,54.33,39.042S118.5,84.48,118.5,58.609a53.055,53.055,0,0,0-4.233-19.521h1.646C125.323,36.5,130.5,25.917,128.381,15.333Zm-64.208,46.8c4.233,0,8,2.117,8,4.7s-3.763,6.821-8,6.821-8-4.233-8-6.821S59.939,62.137,64.173,62.137ZM39.242,65.429c-8.937,0-15.758-.941-15.758-10.584,0-10.113,14.112-24.7,23.284-24.7,8.937,0,8,8,8,17.4C54.53,57.433,47.239,65.429,39.242,65.429ZM64.173,92.712c-8,0-14.817-5.88-14.817-10.113s6.35-.47,14.817-.47,14.817-3.763,14.817.47C78.755,86.6,71.934,92.712,64.173,92.712ZM89.339,64.959c-8.937,0-15.758-8-15.758-17.4s-.47-17.4,8-17.4c8.937,0,23.755,14.817,23.755,24.225C105.1,63.783,97.806,64.959,89.339,64.959Z" transform="translate(122.974 152.44)"/>
  </g>
</svg>
