<svg xmlns="http://www.w3.org/2000/svg" viewBox="0 0 43.777 38.393"><defs><style>.a{fill:#fff;}</style></defs><path class="a" d="M-254.617,406.777l-4.293,4.9a1.547,1.547,0,0,1-2.147,0l-4.293-4.9a1.855,1.855,0,0,1,0-2.308h3.488a15.077,15.077,0,0,0-10.2-10.962,13.581,13.581,0,0,0-10.309,1.2,14.858,14.858,0,0,0-5.253,4.857l-2.952-2.308a18.327,18.327,0,0,1,15.026-8.366,22.055,22.055,0,0,1,4.561.577,19.215,19.215,0,0,1,13.147,14.713h3.488a2.883,2.883,0,0,1-.268,2.6Zm-30.856,2.6a1.855,1.855,0,0,1,0,2.308H-289.5a15.077,15.077,0,0,0,10.2,10.962c5.9,1.731,12.074-.866,15.562-6.058l2.952,2.308a17.773,17.773,0,0,1-19.587,7.789c-6.708-2.019-11.537-7.5-13.147-14.713h-4.025a1.855,1.855,0,0,1,0-2.308l4.561-4.9a1.547,1.547,0,0,1,2.147,0l5.366,4.616Z" transform="translate(297.95 -388.891)"/></svg>